<svg width="30" height="29" viewBox="0 0 30 29" fill="none" xmlns="http://www.w3.org/2000/svg">
<path d="M20.753 13.5146C20.753 16.5627 18.1625 19.033 14.966 19.033C11.7678 19.033 9.17734 16.5627 9.17734 13.5146C9.17734 10.4665 11.7678 7.99467 14.966 7.99467C18.1625 7.99467 20.753 10.4665 20.753 13.5146Z" fill="#FFF8EE"/>
<path d="M22.7741 21.6219C20.6703 23.5221 17.8168 24.5283 14.9944 24.4504C12.1719 24.5423 9.3168 23.5252 7.2114 21.6266C5.09783 19.7404 3.80421 17.0287 3.72417 14.2033C3.62617 11.381 4.75156 8.52446 6.83899 6.42645C8.91173 4.3222 11.8959 3.0232 14.9944 2.9609C15.7506 2.97959 16.4987 3.07304 17.2288 3.2288C17.5457 4.29416 18.5616 5.07761 19.7785 5.07761C20.2342 5.07761 20.6556 4.95768 21.0313 4.7661C21.8022 5.24271 22.5192 5.79408 23.1465 6.43112C25.2323 8.52758 26.3544 11.3826 26.2596 14.2033C26.178 17.0271 24.886 19.7373 22.7741 21.6219ZM25.4152 4.26613C24.5119 3.43907 23.4895 2.7444 22.4016 2.16966C22.2122 0.943874 21.1162 0 19.7785 0C19.1006 0 18.4897 0.249207 18.0193 0.646381C17.0214 0.465706 16.0054 0.375368 14.9944 0.401848C11.2082 0.317739 7.36003 1.71642 4.58005 4.27236C1.78047 6.80182 0.0768786 10.4589 0.00501078 14.2033C-0.0995243 17.9461 1.43583 21.7481 4.20928 24.4893C6.95659 27.2524 10.9322 28.9315 14.9944 29C19.0614 28.9455 23.0387 27.2555 25.7876 24.494C28.5627 21.7512 30.098 17.9476 29.9951 14.2033C29.9216 10.4574 28.2164 6.79714 25.4152 4.26613Z" fill="#FFF8EE"/>
<path d="M19.8405 18.2593C18.4963 19.4026 16.7568 20.0427 14.9944 20.0396C13.8232 20.091 12.6815 19.7811 11.6558 19.2468C11.6737 19.1238 11.6966 19.0023 11.6966 18.8746C11.6966 17.3046 10.3621 16.0336 8.71572 16.0336C8.64875 16.0336 8.58505 16.0492 8.51808 16.0523C8.16527 15.3047 7.9415 14.4932 7.91537 13.6396C7.8288 11.8687 8.49685 10.0433 9.81497 8.70065C11.138 7.36739 13.0327 6.55902 14.9944 6.51697C16.9577 6.50295 18.8997 7.29419 20.2146 8.66171C21.5343 10.0215 22.2203 11.8516 22.1338 13.6396C22.0586 15.4308 21.2011 17.127 19.8405 18.2593ZM21.7483 7.20074C19.9353 5.56375 17.4722 4.61676 14.9944 4.6152C12.5182 4.56069 10.0077 5.49055 8.20284 7.16179C6.37021 8.80189 5.21543 11.1756 5.14356 13.6396C5.09292 15.0305 5.39346 16.4417 5.98964 17.7391C5.82957 18.0864 5.7381 18.4696 5.7381 18.8746C5.7381 20.443 7.07256 21.7155 8.71572 21.7155C8.93295 21.7155 9.14202 21.6906 9.34619 21.6486C10.9877 22.7342 12.9788 23.3619 14.9944 23.3852C16.3288 23.3759 17.6665 23.1173 18.8981 22.6205C20.1231 22.1096 21.2191 21.3495 22.1223 20.4352C23.9125 18.5849 24.8762 16.0819 24.7864 13.6396C24.7161 11.1927 23.5793 8.82214 21.7483 7.20074Z" fill="#FFF8EE"/>
</svg>
