<svg width="30" height="29" viewBox="0 0 30 29" fill="none" xmlns="http://www.w3.org/2000/svg">
<path d="M29.6272 14.8274C29.0864 12.803 28.0214 11.0378 26.7111 9.73486C24.0375 7.15706 20.7073 6.28496 17.7 6.31122C16.1841 6.33399 14.7172 6.60017 13.3579 7.10277C11.985 7.59837 10.6434 8.47398 9.73633 9.92924C8.62493 11.7137 8.34027 13.9973 9.21059 15.9482C11.131 20.2544 15.2974 18.4297 16.2617 17.1303C16.7534 16.4665 16.7616 15.7888 16.5137 15.5752C16.0452 15.1041 14.5851 16.1688 13.1877 16.2792C13.1972 16.2424 12.6156 16.442 11.7657 15.8414C11.413 15.5682 10.973 15.0078 10.8082 14.1724C10.6189 13.3599 10.7006 12.3337 11.2427 11.437C12.2901 9.55798 15.055 8.64034 17.7436 8.46347C20.469 8.32512 23.5213 9.04313 25.8694 11.1814C27.0216 12.2584 27.9464 13.7206 28.4313 15.3738C28.923 17.0164 28.9189 18.8394 28.3986 20.3858C27.892 21.9479 26.9208 23.1702 25.8857 24.0686C24.615 25.2437 23.08 25.9266 21.5913 26.4327C19.4952 27.1472 17.3336 27.3574 15.1762 27.4082C14.611 27.4187 14.1384 27.5973 14.1043 27.8214C14.0662 28.0631 14.5442 28.2645 15.1748 28.275C15.9212 28.289 16.6676 28.3048 17.4126 28.2417C18.1168 28.1822 18.821 28.1104 19.5224 27.9983C21.9182 27.6218 24.4161 26.9056 26.4496 25.1526C27.6114 24.2034 28.7718 22.8567 29.4365 20.9847C30.1175 19.1319 30.1815 16.8413 29.6272 14.8274Z" fill="#FFF8EE"/>
<path d="M20.2647 18.5642C21.3774 16.7779 21.6607 14.4943 20.7918 12.5452C18.8713 8.23723 14.7049 10.062 13.742 11.3632C13.2503 12.0251 13.2408 12.7028 13.4873 12.9165C13.9558 13.3893 15.4173 12.3228 16.8161 12.2125C16.8052 12.251 17.3881 12.0496 18.238 12.6503C18.5894 12.9252 19.0307 13.4821 19.1955 14.3192C19.3848 15.1318 19.3017 16.158 18.761 17.0546C17.7109 18.9337 14.9487 19.8513 12.2574 20.0282C9.53338 20.1683 6.48111 19.4485 4.13164 17.3103C2.9821 16.2315 2.0573 14.7693 1.56969 13.1179C1.07801 11.4735 1.08346 9.65046 1.60374 8.10588C2.11041 6.54205 3.08289 5.32145 4.1153 4.42307C4.26784 4.28122 4.43537 4.16914 4.59473 4.04306L4.57702 3.97826L3.42748 3.4529C2.3079 4.39505 1.20468 5.70321 0.564529 7.51047C-0.117839 9.36151 -0.181854 11.6521 0.373847 13.666C0.914566 15.6887 1.97966 17.4556 3.28992 18.7585C5.96355 21.3346 9.29367 22.2102 12.2996 22.1822C13.8183 22.1594 15.2865 21.8915 16.6445 21.3889C18.0174 20.895 19.3589 20.0177 20.2647 18.5642Z" fill="#FFF8EE"/>
<path d="M14.8274 1.08581C15.3913 1.0718 15.8639 0.89493 15.8979 0.669023C15.9361 0.430857 15.458 0.227715 14.8287 0.215457C14.081 0.20495 13.3333 0.189189 12.5869 0.250481C11.8841 0.310023 11.1785 0.381823 10.4798 0.49215C9.51689 0.646257 8.5376 0.856403 7.57738 1.16287L9.10829 1.8616C10.9851 1.32048 12.9056 1.12959 14.8274 1.08581Z" fill="#FFF8EE"/>
<path d="M5.77873 4.86664L6.27314 3.06989L7.67057 2.43244L6.27314 1.79675L5.77873 4.76837e-07L5.28296 1.79675L3.88689 2.43244L5.28296 3.06989L5.77873 4.86664Z" fill="#FFF8EE"/>
<path d="M9.72111 24.1334L9.22534 25.9301L7.82791 26.5658L9.22534 27.2032L9.72111 29L10.2142 27.2032L11.6129 26.5658L10.2142 25.9301L9.72111 24.1334Z" fill="#FFF8EE"/>
<path d="M26.9257 6.25409L27.3153 4.84436L28.4117 4.34526L27.3153 3.84441L26.9257 2.43468L26.5376 3.84441L25.4398 4.34526L26.5376 4.84436L26.9257 6.25409Z" fill="#FFF8EE"/>
<path d="M24.2564 16.6578C24.6787 16.6578 25.0219 17.0974 25.0219 17.642C25.0219 18.1849 24.6787 18.6262 24.2564 18.6262C23.8328 18.6262 23.491 18.1849 23.491 17.642C23.491 17.0974 23.8328 16.6578 24.2564 16.6578Z" fill="#FFF8EE"/>
<path d="M13.5891 3.3585C14.0127 3.3585 14.3546 3.79981 14.3546 4.34269C14.3546 4.88732 14.0127 5.32687 13.5891 5.32687C13.1669 5.32687 12.8237 4.88732 12.8237 4.34269C12.8237 3.79981 13.1669 3.3585 13.5891 3.3585Z" fill="#FFF8EE"/>
<path d="M6.54362 10.0605C6.8923 10.0605 7.17423 10.423 7.17423 10.8713C7.17423 11.3196 6.8923 11.6821 6.54362 11.6821C6.19631 11.6821 5.91301 11.3196 5.91301 10.8713C5.91301 10.423 6.19631 10.0605 6.54362 10.0605Z" fill="#FFF8EE"/>
<path d="M7.30836 15.8472C7.65704 15.8472 7.93897 16.2097 7.93897 16.658C7.93897 17.1063 7.65704 17.4688 7.30836 17.4688C6.95969 17.4688 6.67775 17.1063 6.67775 16.658C6.67775 16.2097 6.95969 15.8472 7.30836 15.8472Z" fill="#FFF8EE"/>
<path d="M21.6653 10.0605C22.014 10.0605 22.2959 10.423 22.2959 10.8713C22.2959 11.3196 22.014 11.6821 21.6653 11.6821C21.3167 11.6821 21.0347 11.3196 21.0347 10.8713C21.0347 10.423 21.3167 10.0605 21.6653 10.0605Z" fill="#FFF8EE"/>
<path d="M17.9158 22.5443C18.2645 22.5443 18.5464 22.9068 18.5464 23.3551C18.5464 23.8016 18.2645 24.1659 17.9158 24.1659C17.5671 24.1659 17.2852 23.8016 17.2852 23.3551C17.2852 22.9068 17.5671 22.5443 17.9158 22.5443Z" fill="#FFF8EE"/>
</svg>
