<svg width="40" height="40" viewBox="0 0 40 40" fill="none" xmlns="http://www.w3.org/2000/svg">
<path fill-rule="evenodd" clip-rule="evenodd" d="M5 11.25C5 10.9185 5.1317 10.6005 5.36612 10.3661C5.60054 10.1317 5.91848 10 6.25 10H33.75C34.0815 10 34.3995 10.1317 34.6339 10.3661C34.8683 10.6005 35 10.9185 35 11.25C35 11.5815 34.8683 11.8995 34.6339 12.1339C34.3995 12.3683 34.0815 12.5 33.75 12.5H6.25C5.91848 12.5 5.60054 12.3683 5.36612 12.1339C5.1317 11.8995 5 11.5815 5 11.25ZM5 20C5 19.6685 5.1317 19.3505 5.36612 19.1161C5.60054 18.8817 5.91848 18.75 6.25 18.75H33.75C34.0815 18.75 34.3995 18.8817 34.6339 19.1161C34.8683 19.3505 35 19.6685 35 20C35 20.3315 34.8683 20.6495 34.6339 20.8839C34.3995 21.1183 34.0815 21.25 33.75 21.25H6.25C5.91848 21.25 5.60054 21.1183 5.36612 20.8839C5.1317 20.6495 5 20.3315 5 20ZM5 28.75C5 28.4185 5.1317 28.1005 5.36612 27.8661C5.60054 27.6317 5.91848 27.5 6.25 27.5H20C20.3315 27.5 20.6495 27.6317 20.8839 27.8661C21.1183 28.1005 21.25 28.4185 21.25 28.75C21.25 29.0815 21.1183 29.3995 20.8839 29.6339C20.6495 29.8683 20.3315 30 20 30H6.25C5.91848 30 5.60054 29.8683 5.36612 29.6339C5.1317 29.3995 5 29.0815 5 28.75Z" fill="white"/>
</svg>
