<svg xmlns="http://www.w3.org/2000/svg" width="61" height="61" fill="none" viewBox="0 0 61 61">
  <g clip-path="url(#a)">
    <path fill="#FFF8EE" d="M30.26.969C13.815.969.48 14.235.48 30.593c0 16.357 13.336 29.623 29.78 29.623 16.443 0 29.778-13.266 29.778-29.623C60.038 14.235 46.703.969 30.259.969ZM49.8 39.915c0 2.518-2.056 4.563-4.587 4.563h-29.91c-2.53 0-4.587-2.045-4.587-4.563V21.27c0-2.518 2.057-4.564 4.588-4.564h29.909c2.53 0 4.587 2.046 4.587 4.564v18.645Z"/>
    <path fill="#000" d="M30.26 30.593 16.3 19.483h27.918c-3.964 2.639-10.795 8.397-13.959 11.11Z"/>
    <path fill="#000" d="M47.01 21.335v19.246c0 .62-.503 1.12-1.126 1.12h-31.25a1.12 1.12 0 0 1-1.125-1.12V21.335c7.947 6.249 13.53 10.71 14.89 12.035.222.222.92.925 1.86.925.82 0 1.48-.537 1.861-.925l14.89-12.035Z"/>
    <path fill="#000" d="M30.26 30.593 16.3 19.483h27.918c-3.964 2.639-10.795 8.397-13.959 11.11Z"/>
    <path fill="#000" d="M47.01 21.335v19.246c0 .62-.503 1.12-1.126 1.12h-31.25a1.12 1.12 0 0 1-1.125-1.12V21.335c7.947 6.249 13.53 10.71 14.89 12.035.222.222.92.925 1.86.925.82 0 1.48-.537 1.861-.925l14.89-12.035Z"/>
    <path fill="#FFF8EE" d="M30.26 30.593 16.3 19.483h27.918c-3.964 2.639-10.795 8.397-13.959 11.11Z"/>
    <path fill="#FFF8EE" d="M47.01 21.335v19.246c0 .62-.503 1.12-1.126 1.12h-31.25a1.12 1.12 0 0 1-1.125-1.12V21.335c7.947 6.249 13.53 10.71 14.89 12.035.222.222.92.925 1.86.925.82 0 1.48-.537 1.861-.925l14.89-12.035Z"/>
  </g>
  <defs>
    <clipPath id="a">
      <path fill="#fff" d="M0 0h59.557v59.247H0z" transform="translate(.48 .969)"/>
    </clipPath>
  </defs>
</svg>
