<svg xmlns="http://www.w3.org/2000/svg" width="60" height="61" fill="none" viewBox="0 0 60 61">
  <g clip-path="url(#a)">
    <path fill="#FFF8EE" d="M30.044.969C13.601.969.265 14.235.265 30.593c0 16.357 13.336 29.623 29.78 29.623 16.443 0 29.778-13.266 29.778-29.623C59.823 14.235 46.488.969 30.044.969Zm8.375 19.839a.535.535 0 0 1-.53.527H33.72a.876.876 0 0 0-.884.88v3.749h5.053c.288 0 .53.24.53.527v5.425a.535.535 0 0 1-.53.528h-5.053v13.358a.523.523 0 0 1-.53.528h-5.454a.535.535 0 0 1-.53-.528V32.444h-4.123a.535.535 0 0 1-.53-.528v-5.425c0-.287.242-.527.53-.527h4.123v-4.629c0-1.796.726-3.407 1.908-4.582a6.493 6.493 0 0 1 4.606-1.898h5.053c.288 0 .53.24.53.528v5.425Z" opacity=".99"/>
  </g>
  <defs>
    <clipPath id="a">
      <path fill="#fff" d="M0 0h59.557v59.247H0z" transform="translate(.265 .969)"/>
    </clipPath>
  </defs>
</svg>
