<svg xmlns="http://www.w3.org/2000/svg" width="61" height="61" fill="none" viewBox="0 0 61 61">
  <g clip-path="url(#a)">
    <path fill="#FFF8EE" d="M34.597 26.667a5.52 5.52 0 0 1 0 7.85 5.546 5.546 0 0 1-3.945 1.63c-3.08 0-5.584-2.49-5.584-5.554a5.52 5.52 0 0 1 1.638-3.926 5.546 5.546 0 0 1 3.946-1.629c1.544 0 2.94.62 3.945 1.63Z"/>
    <path fill="#FFF8EE" d="M36.905 16.706H24.398c-4.253 0-7.705 3.435-7.705 7.666v12.441c0 4.231 3.452 7.665 7.705 7.665h12.507c4.262 0 7.706-3.434 7.706-7.665V24.371c0-4.23-3.444-7.665-7.706-7.665ZM36.57 36.48a8.355 8.355 0 0 1-5.918 2.444c-4.625 0-8.376-3.73-8.376-8.332 0-2.305.94-4.378 2.457-5.887a8.355 8.355 0 0 1 5.919-2.444c2.308 0 4.41.935 5.918 2.444a8.268 8.268 0 0 1 2.457 5.887c0 2.306-.94 4.38-2.457 5.888Zm4.402-13.21c-.372.38-.903.61-1.48.61a2.092 2.092 0 0 1-2.094-2.082c0-.574.233-1.092.615-1.472.381-.38.902-.61 1.48-.61.576 0 1.107.23 1.479.61a2.068 2.068 0 0 1 0 2.944Z"/>
    <path fill="#FFF8EE" d="M30.652.969C14.208.969.873 14.235.873 30.593c0 16.357 13.335 29.623 29.779 29.623 16.443 0 29.778-13.266 29.778-29.623C60.43 14.235 47.104.969 30.652.969Zm16.75 36.41c0 5.452-4.439 9.877-9.93 9.877H23.83c-5.48 0-9.929-4.425-9.929-9.878V23.807c0-5.453 4.448-9.878 9.93-9.878h13.642c5.49 0 9.93 4.425 9.93 9.878v13.571Z"/>
  </g>
  <defs>
    <clipPath id="a">
      <path fill="#fff" d="M0 0h59.557v59.247H0z" transform="translate(.873 .969)"/>
    </clipPath>
  </defs>
</svg>
