<?xml version="1.0" encoding="utf-8"?>
<!-- Generator: Adobe Illustrator 27.3.1, SVG Export Plug-In . SVG Version: 6.00 Build 0)  -->
<svg version="1.1" id="Layer_1" xmlns="http://www.w3.org/2000/svg" xmlns:xlink="http://www.w3.org/1999/xlink" x="0px" y="0px"
	 viewBox="0 0 510 132" style="enable-background:new 0 0 510 132;" xml:space="preserve">
<style type="text/css">
	.st0{clip-path:url(#SVGID_00000111192219951905385770000004739993244725833616_);}
	.st1{fill:none;}
	.st2{fill-rule:evenodd;clip-rule:evenodd;fill:none;}
	.st3{fill:none;stroke:#000000;stroke-width:7;}
	.st4{fill:none;stroke:#000000;stroke-width:5;}
</style>
<g>
	<defs>
		<rect id="SVGID_1_" width="509.5" height="132"/>
	</defs>
	<clipPath id="SVGID_00000155115003295452230600000009143860376998351496_">
		<use xlink:href="#SVGID_1_"  style="overflow:visible;"/>
	</clipPath>
	<g style="clip-path:url(#SVGID_00000155115003295452230600000009143860376998351496_);">
		<path class="st1" d="M5,96.4c11.6-1.1,17.4-3.2,25.9-10.7c9.7-11.1,18.5-17.2,25.9-19.8C23.7,64.1,8.2,36.9,27.8,4L5,4V96.4z"/>
		<path class="st1" d="M173,47.7c-11.1-15.1-21.2-22.8-43.1-24.4v104.6h51.8l0.4-45.2l0-0.2C181.6,69.9,181.3,59,173,47.7z"/>
		<path class="st1" d="M254.2,63.9v26.4v37.6c31.1-1.3,53.2-28.8,53.3-55.8c0-8.4,0.1-11.3,0.1-12.2c0-0.8,0-3.7-0.1-12.2V4h-53.3
			V63.9z"/>
		<path class="st1" d="M379.6,39.6h73.1c-3.3-22.8-15.7-35-35-35.5l-2.8,0C396.5,4.5,384.3,15.9,379.6,39.6z"/>
		<path class="st1" d="M307.5,4v43.7c16.8-38.3,55.7-35.5,72.1-1v-3.6v-3.6V4H307.5z"/>
		<path class="st1" d="M452.7,39.6h-73.1v3.6c7.5,24.7,17.1,30.5,39.1,33.2c30,3.4,46.1,22.2,53.3,51.6
			c5.4-21.9,12.8-28.4,32.5-30.4V4h-86.8C437,4.6,449.4,16.8,452.7,39.6z"/>
		<path class="st1" d="M379.6,4v35.5c4.7-23.7,16.9-35.1,35.3-35.5L379.6,4z"/>
		<path class="st1" d="M129.9,23.3c22,1.6,32.1,9.2,43.1,24.4c8.3,11.3,8.6,22.2,9,34.8l0,0.2c0.5,16.6,23.5,30.1,39.2,29.4
			c13.9-0.6,24.4-11.2,33-21.8V63.9c-7.1-17-22.2-20.7-36-31.5c-8.9-6.9-9.1-14.2-9.1-28.4h-79.2V23.3z"/>
		<path class="st1" d="M91.3,41.1c6.6-6.6,16.6-19.4,38.6-17.8V4l-102,0C8.2,36.9,23.7,64.1,56.8,65.9c1.6-0.1,3.2-0.2,4.8-0.2
			C76,63.4,85.3,47,91.3,41.1z"/>
		<path class="st1" d="M129.9,23.3c-22-1.6-32,11.2-38.6,17.8c-6,6-15.2,22.3-29.7,24.6c26.3-0.7,39.9,9.2,40.9,30.2
			c0.8,17.5,7.8,31,27.4,32V23.3z"/>
		<path class="st1" d="M221.2,112.1c-15.7,0.6-38.7-12.9-39.2-29.4l-0.4,45.2h72.6V90.3C245.7,100.9,235.1,111.6,221.2,112.1z"/>
		<path class="st1" d="M218.2,32.4c13.9,10.8,28.9,14.5,36,31.5V4h-45.2C209.1,18.2,209.3,25.5,218.2,32.4z"/>
		<path class="st1" d="M472,127.9c-7.2-29.4-23.3-48.2-53.3-51.6c-22-2.7-31.6-8.6-39.1-33.2v3.6v81.2H472z"/>
		<path class="st1" d="M30.9,85.7C22.4,93.2,16.6,95.3,5,96.4v31.5h124.9c-19.6-1-26.6-14.4-27.4-32c-1-21-14.6-30.9-40.9-30.2
			C60,66,58.4,66,56.8,65.9C49.4,68.5,40.6,74.6,30.9,85.7z"/>
		<path class="st2" d="M307.5,72c-0.1,27-22.2,54.5-53.3,55.8h125.4V46.7c-16.4-34.5-55.3-37.3-72.1,1c0,8.4,0.1,11.3,0.1,12.2
			c0-1,0,1,0,0C307.6,60.7,307.6,63.6,307.5,72z M307.6,59.9C307.6,58.8,307.6,60.9,307.6,59.9z"/>
		<path class="st1" d="M472,127.9h32.5V97.5C484.8,99.5,477.4,106,472,127.9z"/>
		<path class="st3" d="M56.8,65.9c-7.4,2.6-16.2,8.7-25.9,19.8C22.4,93.2,16.6,95.3,5,96.4 M56.8,65.9c1.6-0.1,3.2-0.2,4.8-0.2
			 M56.8,65.9c1.7,0.1,3.3,0,4.8-0.2 M56.8,65.9C23.7,64.1,8.2,36.9,27.8,4 M129.9,23.3c-22-1.6-32,11.2-38.6,17.8
			c-6,6-15.2,22.3-29.7,24.6 M129.9,23.3c22,1.6,32.1,9.2,43.1,24.4c8.3,11.3,8.6,22.2,9,34.8 M129.9,23.3v104.6 M129.9,23.3V4
			 M182,82.7c0.5,16.6,23.5,30.1,39.2,29.4c13.9-0.6,24.4-11.2,33-21.8 M182,82.7l-0.4,45.2 M182,82.7l0-0.2 M182,82.7
			c0-0.1,0-0.2,0-0.2 M254.2,90.3V63.9 M254.2,90.3v37.6 M254.2,63.9c-7.1-17-22.2-20.7-36-31.5c-8.9-6.9-9.1-14.2-9.1-28.4
			 M254.2,63.9V4 M209.1,4h-79.2 M209.1,4h45.2 M5,96.4V4 M5,96.4v31.5 M129.9,127.9c-19.6-1-26.6-14.4-27.4-32
			c-1-21-14.6-30.9-40.9-30.2 M129.9,127.9V4 M129.9,127.9h51.8 M129.9,127.9H5 M129.9,4l-102,0 M181.6,127.9h72.6 M254.2,4l160.7,0
			 M254.2,4h53.3 M254.2,127.9c31.1-1.3,53.2-28.8,53.3-55.8c0-8.4,0.1-11.3,0.1-12.2 M254.2,127.9h125.4 M27.8,4L5,4 M27.8,4
			C27.8,4,27.9,4,27.8,4z M27.8,4l387.1,0 M307.5,47.7c0-16.7,0-43.7,0-43.7 M307.5,47.7c16.8-38.3,55.7-35.5,72.1-1 M307.5,47.7
			c0,8.4,0.1,11.3,0.1,12.2 M307.5,47.7c0.1,18.6,0.1,10.3,0.1,12.2 M307.5,47.7V4 M307.5,4l107.4,0 M307.5,4h72.1 M379.6,46.7v-3.6
			 M379.6,46.7v81.2 M379.6,4v35.5 M379.6,4l35.3,0 M379.6,127.9V43.1 M379.6,127.9H472 M379.6,39.6h73.1c-3.3-22.8-15.7-35-35-35.5
			 M379.6,39.6v3.6 M379.6,39.6c4.7-23.7,16.9-35.1,35.3-35.5 M417.7,4c-0.9,0-1.9,0-2.8,0 M417.7,4l-2.8,0 M417.7,4h86.8
			 M472,127.9c-7.2-29.4-23.3-48.2-53.3-51.6c-22-2.7-31.6-8.6-39.1-33.2 M472,127.9c5.4-21.9,12.8-28.4,32.5-30.4 M472,127.9h32.5
			 M505,97.4c-0.2,0-0.3,0-0.5,0.1 M5,4v123.9 M5,127.9h499.5 M504.5,127.9V97.5 M504.5,4l-89.6,0 M504.5,4v93.5 M307.6,59.9
			C307.6,60.9,307.6,58.8,307.6,59.9z"/>
		<rect x="2.5" y="1.5" class="st4" width="505" height="129"/>
	</g>
</g>
</svg>
