<svg xmlns="http://www.w3.org/2000/svg" width="218" height="57" fill="none" viewBox="0 0 218 57">
  <mask id="a" width="218" height="57" x="0" y="0" maskUnits="userSpaceOnUse" style="mask-type:luminance">
    <path fill="#fff" d="M217.308.95H.069v55.99h217.239V.95Z"/>
  </mask>
  <g mask="url(#a)">
    <path stroke="#FFF8EE" stroke-width="7" d="M24.287 28.902c-3.155 1.103-6.907 3.69-11.043 8.398-3.624 3.182-6.097 4.072-11.043 4.539m22.086-12.937a33.022 33.022 0 0 1 2.047-.085m-2.047.085c.725.043 1.408 0 2.047-.085m-2.047.085c-14.113-.763-20.721-12.3-12.364-26.255M2.2 41.839V2.647m0 39.192v13.36m24.133-26.382c6.183-.975 10.105-7.889 12.663-10.434 2.815-2.8 7.078-8.228 16.459-7.55M26.334 28.817c11.214-.297 17.012 3.902 17.439 12.81.341 7.465 3.326 13.149 11.683 13.573M11.922 2.647h-9.72m9.72 0h165.051M55.456 10.833c9.38.679 13.686 3.902 18.376 10.35 3.54 4.793 3.667 9.416 3.838 14.76m-22.214-25.11V55.2m0-44.367V2.647M77.67 35.943v.085m0-.085v.085M55.456 55.2V2.647m0 52.553h22.086m-22.086 0H2.2M55.456 2.647h33.769m-33.77 0h-43.49m65.705 33.38c.213 7.042 10.02 12.768 16.714 12.471 5.926-.254 10.403-4.75 14.07-9.246M77.67 36.028 77.5 55.2h30.954m0-15.949V28.055m0 11.198V55.2m0-27.146c-3.027-7.21-9.465-8.78-15.35-13.361-3.794-2.927-3.88-6.023-3.88-12.046m19.23 25.407V2.647m0 52.553c13.261-.552 22.683-12.216 22.726-23.668 0-3.563.043-4.793.043-5.175M108.454 55.2h53.468M89.225 2.647h19.272m-.043 0h68.519m-68.519 0h22.726m-128.979 0V55.2m0 0h212.975M176.973 2.647H131.18m45.793 0h-15.051m15.051 0h1.194m-1.194 0h1.194m-1.194 0h38.203m-83.996 0v18.536m0-18.536v18.536m0-18.536h30.742m-30.699 23.71c0-.381-.043-1.612-.043-5.174m.043 5.174c0-.806 0 2.715-.043-5.174m.043 5.174c0-.466 0 .424 0 0ZM161.922 55.2V20.758m0 34.442V19.23m0 35.969h39.397M131.18 21.182c7.163-16.245 23.749-15.057 30.742-.424m0 0v-1.527m0-16.584v15.057m0 1.527c3.198 10.435 7.291 12.937 16.671 14.082 12.792 1.442 19.656 9.417 22.726 21.887m0 0c2.303-9.29 5.458-12.046 13.857-12.895M201.319 55.2h13.857m-53.254-37.453h31.168c-1.407-9.67-6.694-14.846-14.923-15.058m-16.245 15.058v1.527m0-1.527c2.004-10.053 7.206-14.888 15.051-15.058m1.194-.042h37.009m0 0v39.658m0 0c.086-.042.128-.042.214-.042m-.214.042V55.2"/>
    <path stroke="#FFF8EE" stroke-width="5" d="M216.456 1.587H1.136v54.715h215.32V1.587Z"/>
  </g>
</svg>
