<svg xmlns="http://www.w3.org/2000/svg" width="61" height="61" fill="none" viewBox="0 0 61 61">
  <g clip-path="url(#a)">
    <path fill="#FFF8EE" d="M30.437.969C13.984.969.657 14.235.657 30.593c0 16.357 13.327 29.623 29.78 29.623 16.452 0 29.778-13.257 29.778-29.623C60.215 14.226 46.88.969 30.437.969Zm2.42 45.824h-4.654V36.61h4.653v10.183Zm10.747-16.737h-7.556l5.342 5.313-3.285 3.277-7.668-7.628-7.668 7.628-3.295-3.277 5.342-5.313H17.26v-4.63h7.556l-5.342-5.313 3.295-3.277 5.434 5.406v-7.85h4.653v7.665l5.249-5.22 3.285 3.276-5.342 5.314h7.556v4.629Z"/>
  </g>
  <defs>
    <clipPath id="a">
      <path fill="#fff" d="M0 0h59.557v59.247H0z" transform="translate(.658 .969)"/>
    </clipPath>
  </defs>
</svg>
