<svg xmlns="http://www.w3.org/2000/svg" width="60" height="61" fill="none" viewBox="0 0 60 61">
  <g clip-path="url(#a)">
    <path fill="#FFF8EE" d="M38.28 25.334a79.14 79.14 0 0 0-5.071 1.213c-1.21.324-2.383.666-3.583.972a229.99 229.99 0 0 1-6.03 1.546c-.987.25-2.001.417-3.006.602-.075.009-.149.009-.223.009-.503.056-.977-.481-.875-1.028a10.61 10.61 0 0 1 1.861-4.378 10.853 10.853 0 0 1 3.787-3.287 10.894 10.894 0 0 1 3.453-1.138 9.545 9.545 0 0 1 2.568-.084c2.001.176 3.844.861 5.49 2.028a10.973 10.973 0 0 1 2.188 2.11c.419.537.13 1.306-.559 1.435Z"/>
    <path fill="#FFF8EE" d="M30.221.969C13.77.969.444 14.235.444 30.593c0 16.357 13.326 29.623 29.778 29.623 16.453 0 29.78-13.257 29.78-29.623C60 14.226 46.664.969 30.22.969Zm24.838 31.04c-.168.5-.689.75-1.173.546a21.153 21.153 0 0 0-3.331-.99c-.642-.14-1.303-.241-1.954-.343-.438-.056-.931.342-.968.787a17.381 17.381 0 0 1-.475 2.851 16.587 16.587 0 0 1-1.517 3.916 17.148 17.148 0 0 1-1.935 2.879l-.456.528c-.354.38-.884.435-1.266.092-.428-.398-.837-.824-1.247-1.231-.521-.5-1.014-1.009-1.535-1.509a15.403 15.403 0 0 1-.661-.685.861.861 0 0 1 0-1.157c.875-1.037 1.563-2.194 2-3.48.178-.52.308-1.066.429-1.62.149-.612-.41-1.195-1.042-1.066-1.099.204-2.215.417-3.313.658a73 73 0 0 0-2.801.694c-1.499.398-2.978.824-4.467 1.222-1.331.361-2.643.722-3.974 1.046-1.08.269-2.15.49-3.229.74-.66.149-.93.899-.512 1.417a10.65 10.65 0 0 0 2.987 2.63c.968.573 1.992 1.008 3.09 1.249.53.12 1.098.194 1.647.25.54.055.884.546.884.916-.018 1.565-.028 3.11 0 4.648 0 .5-.41 1-1.005.971a68.747 68.747 0 0 1-1.526-.185 15.997 15.997 0 0 1-3.062-.722 17.025 17.025 0 0 1-3.164-1.435 16.27 16.27 0 0 1-2.4-1.657 18.003 18.003 0 0 1-1.908-1.851c-.82-.926-1.545-1.898-2.131-2.972-.345-.61-.642-1.259-.93-1.888-.187-.398-.466-.611-.932-.667a42.724 42.724 0 0 1-2.875-.342 19.895 19.895 0 0 1-5.742-1.833c-.335-.176-.577-.389-.614-.778 0-.12 0-.26.037-.38l1.34-3.999c.159-.462.54-.768.968-.685.251.037.475.148.717.232a20.08 20.08 0 0 0 3.601.972c.447.074.884.167 1.33.185.457.037.838-.333.876-.778.13-1.314.362-2.582.772-3.832a16.787 16.787 0 0 1 1.852-3.944c.558-.898 1.21-1.75 1.935-2.536a17.804 17.804 0 0 1 3.713-3.055 17.003 17.003 0 0 1 5.323-2.166c.717-.158 1.462-.232 2.197-.334.874-.13 1.758-.11 2.652-.064 2.056.13 4.03.583 5.928 1.407a18.113 18.113 0 0 1 3.694 2.184 16.515 16.515 0 0 1 2.466 2.296c.735.833 1.415 1.713 1.954 2.703.391.722.736 1.454 1.09 2.203.213.426.567.537.986.575.707.064 1.395.138 2.093.222 1.005.13 2.01.351 2.978.62a20.4 20.4 0 0 1 3.536 1.37c.4.213.587.648.456 1.092-.456 1.352-.92 2.713-1.386 4.083Z"/>
  </g>
  <defs>
    <clipPath id="a">
      <path fill="#fff" d="M0 0h59.557v59.247H0z" transform="translate(.443 .969)"/>
    </clipPath>
  </defs>
</svg>
