<svg xmlns="http://www.w3.org/2000/svg" width="60" height="61" fill="none" viewBox="0 0 60 61">
  <g clip-path="url(#a)">
    <path fill="#FFF8EE" d="M17.369 35.249c-.168 0-.345-.148-.512-.25-.26-.167-.317-.49-.494-.713-.102-.13-.083-.342-.12-.509-.187-.889-.14-1.787-.121-2.685 0-.342.158-.675.176-1.018.019-.287.214-.49.298-.74.121-.37.763-.574 1.052-.315.13.102.242.24.335.416.14.297.214.602.297.898.084.297.13.611.15.917.018.352 0 .703 0 1.064 0 .408.027.824-.01 1.232-.019.296-.14.574-.186.87a.85.85 0 0 1-.289.537c-.167.139-.381.277-.576.296Zm2.829-2.49c.204-.361.065-.76.111-1.139.047-.305.047-.63.102-.935.038-.194.159-.38.233-.565.056-.13.093-.259.14-.38.084-.194.149-.397.242-.582.037-.065.12-.111.186-.167.158-.139.316-.268.465-.407.019-.01.028-.047.037-.047.177-.055.345-.11.521-.148.14-.018.55.167.69.24.26.121.446.306.623.51.074.083.158.185.167.278.01.296.28.49.307.805.019.167.037.398.121.556.205.37.047.759.112 1.064 0 .26.01.463 0 .657-.01.167.056.361-.112.5-.018 0-.01.056-.018.084-.047.259-.056.527-.14.768-.13.361-.28.722-.493 1.028-.196.287-.484.527-.763.75-.13.092-.345.11-.521.11-.28 0-.587 0-.847-.092-.168-.065-.428-.139-.438-.417-.009-.027-.018-.064-.037-.074-.251-.148-.298-.407-.372-.666-.047-.139-.112-.278-.121-.435a9.537 9.537 0 0 0-.084-.722c-.028-.14-.074-.287-.102-.426-.01-.046-.028-.111-.01-.148Zm-2.55-13.155h-.075c.028-.305.037-.62.093-.926.028-.194.093-.389.168-.574.084-.194.186-.37.279-.546.102-.185.195-.36.326-.527.26-.334.52-.676.81-.991.167-.194.362-.352.548-.518.363-.325.708-.667 1.09-.963.288-.232.623-.408.948-.602.047-.028.112-.019.168-.019.26-.009.53-.037.79 0 .252.037.503.149.755.223.149.037.297.083.446.13a.432.432 0 0 1 .317.471l-.14.028c-.27.056-.54.12-.81.185-.195.056-.39.093-.576.167-.224.093-.428.213-.633.315-.038.018-.056.055-.084.064-.326.075-.586.25-.847.454-.354.269-.744.5-1.089.778-.297.24-.558.527-.828.796a4.198 4.198 0 0 0-.521.555c-.177.241-.419.426-.54.713-.111.232-.316.426-.474.63-.037.055-.084.11-.121.157ZM31.03 31.342c.037.62.074 1.24.083 1.861.01.194.01.444-.093.592-.111.176-.037.399-.214.547-.084.074-.093.231-.158.342-.112.185-.214.37-.354.528a2.692 2.692 0 0 1-.549.481c-.149.102-.363.14-.52.213-.224.111-.429.102-.652.093-.242 0-.447-.14-.67-.213-.372-.13-.53-.463-.81-.667-.065-.046-.102-.175-.111-.277-.02-.38-.215-.732-.15-1.12.02-.112 0-.232 0-.343h.01c0-.231-.01-.463 0-.694 0-.12-.056-.269.102-.352.028-.01.019-.093.028-.139.028-.222.028-.444.093-.648.065-.194.196-.37.298-.555.075-.14.14-.287.223-.417.075-.111.15-.222.242-.306.196-.175.4-.323.605-.49 0 0 .01-.01.01-.019.279-.027.558-.083.828-.083.307.01.595.167.828.343.214.157.456.333.558.629.047.13.159.24.233.361.056.111.13.222.14.333Z"/>
    <path fill="#FFF8EE" d="M42.615 27.278c-.102-.435-.074-.907-.111-1.36-.038-.361-.093-.732-.14-1.102v-.037l-.251-.805c-.047-.186-.084-.38-.158-.556-.093-.268-.224-.528-.317-.796-.074-.232-.204-.306-.437-.25a5.995 5.995 0 0 1-.912.12c-.186.01-.382-.083-.577-.102-.307-.018-.586-.055-.884-.194a2.38 2.38 0 0 1-.735-.574c-.103-.102-.093-.268.055-.389.13-.11.205-.11.335 0 .205.167.42.296.717.334.298.046.586.009.875-.028a.598.598 0 0 0 .242-.093c.195-.092.4-.185.586-.305a1.507 1.507 0 0 0 .512-.704c.074-.204.177-.398.214-.61.046-.353-.14-.658-.28-.964-.083-.175-.213-.333-.325-.5-.121-.157-.27-.305-.39-.472a4.556 4.556 0 0 1-.299-.509c-.158-.277-.307-.555-.456-.833-.046-.074-.055-.176-.12-.24-.28-.297-.559-.593-.847-.87a6.063 6.063 0 0 0-.587-.51c-.242-.194-.484-.37-.735-.546-.233-.148-.465-.343-.726-.417-.344-.102-.651-.277-1.023-.324a2.794 2.794 0 0 0-1.434.14c-.316.12-.614.277-.893.462-.27.194-.502.454-.754.667-.195.166-.325.38-.335.62-.027.389 0 .787 0 1.175 0 .065.047.14.075.195.195.333.521.546.8.796.326.287.428.472.317.87-.14.046-.28.139-.41.13a1.06 1.06 0 0 1-.502-.148 9.98 9.98 0 0 1-1.126-.704c-.196-.139-.391-.333-.494-.546-.149-.287-.214-.611-.307-.917-.102-.009-.186 0-.26-.018-.4-.111-.8-.232-1.2-.324a12.021 12.021 0 0 0-1.173-.269 12.279 12.279 0 0 0-1.173-.13c-.27-.027-.549 0-.828-.018-.465-.037-.912.074-1.368.14-.27.046-.54.092-.81.147-.149.028-.279.084-.418.14-.186.073-.354.203-.54.221-.354.047-.614.25-.903.398-.372.195-.698.463-1.033.713a4.589 4.589 0 0 0-.633.565 17.34 17.34 0 0 0-.92 1.11c-.178.223-.317.473-.466.704-.084.149-.158.287-.242.436-.158.296-.335.592-.484.888-.102.204-.149.426-.242.63-.056.13-.158.24-.214.38-.065.184-.112.388-.158.582-.047.176-.056.37-.112.547-.065.203-.177.398-.223.61-.075.297-.112.593-.158.899 0 .018 0 .037-.01.055-.167.361-.158.75-.232 1.13-.056.296-.01.61-.028.907-.019.194-.056.38-.084.592.093-.01.168.01.186-.018.205-.223.41 0 .54.064.205.102.381.306.502.51.196.333.345.694.503 1.046.065.148.093.305.149.463.074.213.195.416.223.63.065.388.075.786.112 1.175.01.055.018.11.028.157.065-.13.074-.26.102-.389.075-.342.158-.675.233-1.018.065-.26.111-.518.186-.768.037-.148.102-.287.167-.417.093-.185.196-.37.289-.555.028-.037.074-.065.093-.102.112-.167.186-.343.316-.482.242-.259.503-.5.763-.75-.176 0-.353-.018-.52.01-.178.028-.215-.111-.261-.195-.019-.046.055-.166.111-.231.168-.185.438-.176.652-.194a2.576 2.576 0 0 1 1.768.462c.316.223.614.436.763.824.12.278.363.51.493.797.15.342.251.722.354 1.083.093.314.195.63.251.953.075.407.13.824.14 1.24.009.352.009.713-.084 1.074-.093.398-.13.815-.289 1.204-.12.296-.195.62-.316.916-.074.158-.195.297-.288.445-.159.259-.298.537-.484.787-.13.185-.307.342-.466.509-.13.13-.25.268-.4.38-.251.184-.512.342-.772.508-.298.195-.642.14-.94.056-.26-.083-.512-.26-.735-.463a1.986 1.986 0 0 1-.577-.805c-.047-.13-.056-.269-.103-.408-.065-.185-.186-.351-.214-.546a17.999 17.999 0 0 1-.149-1.425c-.018-.195 0-.399 0-.593h-.102c0 .093-.01.185-.018.269-.028.277-.01.583-.121.833-.14.296-.252.62-.457.907-.167.25-.297.528-.511.75-.14.148-.289.296-.456.38-.186.083-.307.166-.298.388.047.685-.093 1.389.12 2.074.085.287-.008.583.113.889.13.305.12.666.167 1 .028.175.037.36.102.518.112.314.224.63.4.907.196.306.27.666.559.926.214.185.326.49.512.722.242.314.484.62.763.889.233.212.558.333.79.555.327.296.736.417 1.118.602.12.055.26.102.39.148.224.083.438.157.661.222.065.018.13.018.196.028.307.065.614.185.912.176.986-.019 1.982.148 2.959-.093.316-.083.651-.065.968-.102.27-.037.54-.092.81-.148h.018c.214-.083.428-.167.642-.231.223-.084.447-.14.67-.213.112-.028.223-.047.326-.102.242-.139.483-.296.726-.445.167-.092.344-.166.511-.259.27-.157.522-.324.782-.481.205-.12.419-.232.623-.352.13-.074.242-.176.373-.25.288-.166.577-.314.865-.49.251-.149.512-.297.726-.482.214-.185.41-.36.651-.509.159-.102.261-.287.4-.435.13-.13.27-.25.391-.389.13-.139.233-.296.354-.444.158-.213.317-.426.484-.639.074-.083.177-.139.242-.222.195-.26.363-.528.558-.778.214-.287.466-.546.68-.833.176-.25.363-.51.54-.768.25-.343.446-.722.679-1.074.167-.278.279-.602.428-.898.149-.287.316-.565.456-.852.111-.268.186-.546.288-.814.037-.102.075-.204.121-.306.112-.24.233-.463.335-.703.075-.186.093-.39.168-.574.14-.334.297-.667.446-1 .047-.102.103-.195.13-.296.056-.223.112-.454.159-.676.065-.306.186-.62.186-.926-.019-.824.112-1.648-.093-2.462l-.019-.01Zm-10.832 6.175c-.009.26-.14.518-.223.768-.047.13-.112.26-.149.39-.102.305-.28.564-.456.832-.326.51-.763.907-1.21 1.278a1.881 1.881 0 0 1-.819.398c-.195.028-.372.139-.549.213-.018 0-.028.018-.046.018-.41.047-.82.12-1.229.13-.186 0-.381-.139-.576-.204-.084-.037-.177-.046-.326-.074.028-.139.01-.315.093-.407.084-.074.27-.056.419-.083 0-.038-.019-.075-.038-.084a2.813 2.813 0 0 1-.735-1.064c-.046-.12-.084-.25-.12-.37-.066-.306-.168-.612-.187-.926-.028-.51.01-1.028.019-1.537 0-.13.018-.26.037-.389.047-.342.037-.722.168-1.037.148-.37.279-.74.455-1.092.196-.398.484-.722.717-1.083.093-.158.298-.24.456-.352.158-.12.316-.24.484-.333.112-.065.242-.093.363-.111.428-.093.865-.278 1.303-.158.307.084.604.25.819.528.093.12.242.213.325.343.13.194.242.416.345.629.14.278.27.555.39.833.066.167.093.352.15.528.232.796.13 1.61.12 2.416Zm.307-4.934c-.083.092-.186.194-.353.046-.15-.12-.372-.148-.55-.24-.306-.167-.604-.352-.92-.519-.094-.046-.205-.056-.308-.093-.279-.092-.558-.194-.865-.166-.065.009-.14-.047-.214-.065 0 .01-.01.028-.01.037-.176.019-.362.028-.54.046a1.089 1.089 0 0 0-.306.102c-.177.065-.335.037-.419-.111-.065-.12-.102-.296.056-.398.13-.083.27-.148.41-.222.157-.074.316-.148.483-.213a.418.418 0 0 1 .186-.037h.503c.307 0 .577.102.847.222.12.065.279.065.4.12.223.112.437.25.66.361.252.14.512.241.754.39.14.082.26.212.345.351.102.167-.056.287-.159.389Z"/>
    <path fill="#FFF8EE" d="M29.83.969C13.385.969.05 14.225.05 30.593c0 16.366 13.336 29.623 29.78 29.623 16.443 0 29.778-13.266 29.778-29.623C59.608 14.235 46.282.969 29.829.969Zm5.369 47.675c0-.601-.02-1.194 0-1.786.009-.232.14-.454.223-.676.037-.111.112-.213.13-.324.037-.176.177-.167.289-.139a.391.391 0 0 1 .232.167c.065.157.112.333.13.5.038.583.205 1.157.14 1.758-.018.158-.01.334-.018.5h-1.136.01Zm.511-3.804c.01-.278.093-.38.298-.38.223 0 .344.139.344.38-.009.25-.12.37-.353.37-.233 0-.289-.084-.289-.37Zm6.533 3.804c-.037-.194-.093-.38-.13-.574-.056-.296-.093-.601-.15-.898v-.018c-.064-.25-.13-.5-.204-.75a6.427 6.427 0 0 0-.13-.389c-.056-.176-.093-.36-.158-.537-.065-.185-.158-.37-.242-.555-.084-.213-.158-.435-.26-.639-.103-.204-.243-.398-.364-.592-.083-.148-.14-.306-.251-.435-.26-.315-.55-.611-.828-.917-.27-.287-.53-.592-.903-.768-.046-.028-.14.009-.177.046a4.63 4.63 0 0 0-.446.5c-.345.444-.745.833-1.136 1.24-.27.269-.558.519-.837.769-.224.203-.447.416-.689.61-.26.214-.54.399-.819.602-.158.12-.307.269-.484.361-.335.176-.679.334-1.014.482-.13.065-.27.102-.4.157-.317.12-.633.24-.94.38-.242.11-.465.25-.707.36-.205.093-.42.149-.624.232-.158.065-.288.185-.447.232-.223.074-.455.11-.679.157-.167.037-.326.046-.484.093-.27.074-.53.194-.8.231-.68.065-1.359.102-2.038.148-.065 0-.158-.018-.195.01-.224.185-.494.101-.736.11-.567.01-1.144.038-1.712-.12-.26-.074-.54-.102-.81-.157a2.13 2.13 0 0 1-.409-.14c-.242-.092-.474-.203-.716-.314-.215-.092-.438-.176-.633-.296-.298-.176-.568-.38-.847-.574-.028 0-.047.01-.065.018.065.593.14 1.176.214 1.769.01-.01.028-.01.037-.01-.037.056-.074.111-.112.176H18.3c0-.407-.028-.814 0-1.222.028-.407.093-.814.149-1.222 0-.037.037-.074.056-.11.093-.167.056-.325-.01-.491a4.412 4.412 0 0 0-.186.675c-.009.056-.009.13-.018.195-.065.472-.14.935-.196 1.407-.027.26-.009.51-.009.768h-.875c0-.685-.009-1.37.01-2.046.009-.314.083-.63.13-.944 0-.018.01-.028.01-.046.083-.213.167-.426.241-.639l.196-.666c.009-.047.018-.093.009-.13-.056-.12-.112-.231-.168-.343-.102-.222-.204-.444-.307-.657-.055-.13-.111-.25-.158-.37-.084-.176-.167-.343-.232-.518-.084-.26-.15-.519-.233-.778-.037-.139-.047-.315-.13-.398-.224-.204-.112-.482-.215-.722-.158-.352-.093-.796-.232-1.185-.084-.25-.075-.528-.121-.796-.103-.658-.121-1.333-.158-2-.019-.268 0-.528-.01-.787 0-.055.01-.13 0-.176-.167-.305-.195-.657-.223-.98a19.75 19.75 0 0 1-.093-2.102c0-.806.046-1.62.074-2.426.01-.046.01-.092.028-.13.15-.305.252-.61.233-.953-.019-.454-.01-.898-.019-1.352-.009-.805.047-1.61.159-2.406 0-.028 0-.047.009-.065.084-.324.167-.639.242-.954.046-.231.056-.472.102-.694.028-.148.084-.296.14-.435.074-.185.167-.361.232-.546.066-.195.084-.417.177-.593.121-.222-.046-.36-.083-.527-.038-.186-.205-.361-.205-.537.028-.602-.13-1.222.111-1.824.066-.167.028-.361.112-.546.102-.24.102-.537.251-.778.093-.157.15-.333.242-.49.084-.14.224-.26.26-.399.085-.314.317-.527.494-.768.093-.13.158-.268.26-.38.317-.333.652-.647.969-.972.27-.259.52-.546.8-.786.214-.186.41-.38.66-.537.373-.232.736-.408 1.173-.426.13-.01.26-.074.39-.093.14-.009.29-.009.429 0 .074.01.149.056.233.074.26.037.53.047.79.112.159.037.317.13.466.212.158.093.298.195.447.287.13.093.279.176.39.297.159.166.289.351.428.536.038.047.084.084.093.14.038.175.112.286.326.259.372-.047.745-.111 1.126-.111.382 0 .791.064 1.191.092.717.056 1.443.102 2.169.158a.16.16 0 0 1 .065.009c.177.046.353.102.52.148.057-.13.113-.213.113-.287.018-.343.27-.537.474-.75.177-.176.372-.333.577-.481.205-.149.428-.287.652-.417.158-.083.344-.139.511-.222.233-.12.484-.232.754-.222.493.009.996-.102 1.498.102.289.12.615.157.931.222.084.018.177 0 .26.037.289.11.578.24.857.36.27.112.54.195.79.316.243.12.485.231.699.416.242.204.567.324.763.611.083.12.186.222.288.333.075.084.168.158.242.25.093.12.158.26.251.38.112.166.242.324.354.49.112.167.186.352.307.5.335.39.568.843.81 1.287.056.093.084.213.158.306.205.259.26.564.298.87a5.42 5.42 0 0 1 0 1.027c-.01.158-.112.306-.168.463-.056.158-.149.306-.149.463 0 .13.112.25.177.38.14.25.28.49.4.75.065.148.065.333.168.453.149.185.14.398.195.593.047.157.103.314.158.472.066.203.168.398.224.61.046.223.056.464.111.695.093.426-.018.898.159 1.324a.797.797 0 0 1 .055.25c.056.277.168.546.159.824-.019.814.102 1.629-.103 2.444-.102.425-.065.88-.223 1.305-.075.194-.019.407-.13.61-.084.186-.066.418-.121.63-.093.352-.14.713-.27 1.065-.103.278-.158.583-.242.87a3.902 3.902 0 0 1-.168.463c-.065.139-.167.268-.232.407-.084.176-.121.39-.242.528-.233.278-.363.593-.512.907-.047.084-.056.176-.112.25-.158.24-.325.472-.484.722-.12.185-.232.39-.353.584-.103.166-.205.342-.345.48-.13.14-.13.371-.353.436-.065.028-.103.12-.15.185-.204.269-.427.528-.613.806-.056.101-.27.185-.121.342.26.26.549.49.819.74.14.14.288.288.41.445.176.26.334.537.502.796.195.296.428.583.586.898.158.315.251.657.381.981 0 .028.038.056.056.084.056.11.14.213.177.324.112.324.205.657.298.98.028.112.037.232.084.334.12.26.242.519.25.806 0 .027.01.055.02.083.074.231.186.463.223.694.056.352.074.713.102 1.074h-.968l-.009.01Z"/>
  </g>
  <defs>
    <clipPath id="a">
      <path fill="#fff" d="M0 0h59.557v59.247H0z" transform="translate(.05 .969)"/>
    </clipPath>
  </defs>
</svg>
