<svg width="30" height="29" viewBox="0 0 30 29" fill="none" xmlns="http://www.w3.org/2000/svg">
<path d="M29.6272 14.8273C29.0864 12.8029 28.0214 11.0377 26.7111 9.7348C24.0375 7.157 20.7073 6.28489 17.7 6.31116C16.1841 6.33393 14.7172 6.60011 13.3579 7.10271C11.985 7.59831 10.6434 8.47392 9.73633 9.92918C8.62493 11.7137 8.34027 13.9973 9.21059 15.9481C11.131 20.2544 15.2974 18.4296 16.2617 17.1302C16.7534 16.4665 16.7616 15.7888 16.5137 15.5751C16.0452 15.104 14.5851 16.1688 13.1877 16.2791C13.1972 16.2423 12.6156 16.442 11.7657 15.8413C11.413 15.5681 10.973 15.0077 10.8082 14.1724C10.6189 13.3598 10.7006 12.3336 11.2427 11.437C12.2901 9.55792 15.055 8.64028 17.7436 8.46341C20.469 8.32506 23.5213 9.04306 25.8694 11.1813C27.0216 12.2583 27.9464 13.7206 28.4313 15.3737C28.923 17.0164 28.9189 18.8394 28.3986 20.3857C27.892 21.9478 26.9208 23.1701 25.8857 24.0685C24.615 25.2436 23.08 25.9266 21.5913 26.4327C19.4952 27.1472 17.3336 27.3573 15.1762 27.4081C14.611 27.4186 14.1384 27.5972 14.1043 27.8214C14.0662 28.0631 14.5442 28.2644 15.1748 28.2749C15.9212 28.289 16.6676 28.3047 17.4126 28.2417C18.1168 28.1821 18.821 28.1103 19.5224 27.9983C21.9182 27.6217 24.4161 26.9055 26.4496 25.1525C27.6114 24.2034 28.7718 22.8567 29.4365 20.9846C30.1175 19.1318 30.1815 16.8412 29.6272 14.8273Z" fill="#c86b25"/>
<path d="M20.2647 18.5642C21.3774 16.778 21.6607 14.4944 20.7918 12.5453C18.8713 8.23726 14.7049 10.062 13.742 11.3632C13.2503 12.0251 13.2408 12.7029 13.4873 12.9165C13.9558 13.3893 15.4173 12.3228 16.8161 12.2125C16.8052 12.251 17.3881 12.0497 18.238 12.6503C18.5894 12.9253 19.0307 13.4822 19.1955 14.3192C19.3848 15.1318 19.3017 16.158 18.761 17.0546C17.7109 18.9337 14.9487 19.8513 12.2574 20.0282C9.53338 20.1683 6.48111 19.4486 4.13164 17.3103C2.9821 16.2316 2.0573 14.7693 1.56969 13.1179C1.07801 11.4735 1.08346 9.65049 1.60374 8.10591C2.11041 6.54208 3.08289 5.32148 4.1153 4.4231C4.26784 4.28125 4.43537 4.16917 4.59473 4.04309L4.57702 3.97829L3.42748 3.45293C2.3079 4.39508 1.20468 5.70324 0.564529 7.5105C-0.117839 9.36154 -0.181854 11.6521 0.373847 13.666C0.914566 15.6887 1.97966 17.4557 3.28992 18.7586C5.96355 21.3346 9.29367 22.2102 12.2996 22.1822C13.8183 22.1594 15.2865 21.8915 16.6445 21.3889C18.0174 20.8951 19.3589 20.0177 20.2647 18.5642Z" fill="#c86b25"/>
<path d="M14.8274 1.08578C15.3913 1.07177 15.8639 0.894899 15.8979 0.668992C15.9361 0.430826 15.458 0.227685 14.8288 0.215426C14.081 0.204919 13.3333 0.189158 12.5869 0.250451C11.8841 0.309992 11.1786 0.381792 10.4798 0.492119C9.5169 0.646226 8.53761 0.856373 7.57739 1.16284L9.1083 1.86157C10.9851 1.32045 12.9056 1.12956 14.8274 1.08578Z" fill="#c86b25"/>
<path d="M5.77874 4.8667L6.27315 3.06995L7.67057 2.4325L6.27315 1.79681L5.77874 6.14459e-05L5.28297 1.79681L3.8869 2.4325L5.28297 3.06995L5.77874 4.8667Z" fill="#c86b25"/>
<path d="M9.72111 24.1334L9.22534 25.9301L7.82791 26.5658L9.22534 27.2032L9.72111 29L10.2142 27.2032L11.6129 26.5658L10.2142 25.9301L9.72111 24.1334Z" fill="#c86b25"/>
<path d="M26.9257 6.25415L27.3153 4.84442L28.4117 4.34532L27.3153 3.84447L26.9257 2.43474L26.5376 3.84447L25.4398 4.34532L26.5376 4.84442L26.9257 6.25415Z" fill="#c86b25"/>
<path d="M24.2564 16.6579C24.6787 16.6579 25.0219 17.0974 25.0219 17.642C25.0219 18.1849 24.6787 18.6262 24.2564 18.6262C23.8328 18.6262 23.491 18.1849 23.491 17.642C23.491 17.0974 23.8328 16.6579 24.2564 16.6579Z" fill="#c86b25"/>
<path d="M13.5891 3.35853C14.0127 3.35853 14.3546 3.79984 14.3546 4.34272C14.3546 4.88735 14.0127 5.3269 13.5891 5.3269C13.1669 5.3269 12.8237 4.88735 12.8237 4.34272C12.8237 3.79984 13.1669 3.35853 13.5891 3.35853Z" fill="#c86b25"/>
<path d="M6.54362 10.0605C6.8923 10.0605 7.17423 10.423 7.17423 10.8713C7.17423 11.3196 6.8923 11.6821 6.54362 11.6821C6.19631 11.6821 5.91301 11.3196 5.91301 10.8713C5.91301 10.423 6.19631 10.0605 6.54362 10.0605Z" fill="#c86b25"/>
<path d="M7.30836 15.8471C7.65704 15.8471 7.93897 16.2096 7.93897 16.6579C7.93897 17.1062 7.65704 17.4688 7.30836 17.4688C6.95969 17.4688 6.67775 17.1062 6.67775 16.6579C6.67775 16.2096 6.95969 15.8471 7.30836 15.8471Z" fill="#c86b25"/>
<path d="M21.6653 10.0605C22.014 10.0605 22.2959 10.423 22.2959 10.8713C22.2959 11.3196 22.014 11.6821 21.6653 11.6821C21.3167 11.6821 21.0347 11.3196 21.0347 10.8713C21.0347 10.423 21.3167 10.0605 21.6653 10.0605Z" fill="#c86b25"/>
<path d="M17.9158 22.5441C18.2645 22.5441 18.5464 22.9066 18.5464 23.355C18.5464 23.8015 18.2645 24.1658 17.9158 24.1658C17.5671 24.1658 17.2852 23.8015 17.2852 23.355C17.2852 22.9066 17.5671 22.5441 17.9158 22.5441Z" fill="#c86b25"/>
</svg>
