<svg width="30" height="29" viewBox="0 0 30 29" fill="none" xmlns="http://www.w3.org/2000/svg">
<path d="M25.3481 7.54891C25.1703 7.3038 24.8178 7.24402 24.5643 7.41739L22.2855 8.96872C22.0304 9.14059 21.9686 9.47985 22.1479 9.72645C22.2577 9.8759 22.4308 9.95661 22.6102 9.95661C22.7215 9.95661 22.8328 9.92522 22.9333 9.85797L25.2121 8.30664C25.4656 8.13477 25.5274 7.79551 25.3481 7.54891ZM19.9387 7.59075C20.0361 7.65651 20.1505 7.68939 20.2618 7.68939C20.438 7.68939 20.6127 7.60869 20.7225 7.45774L22.3272 5.2533C22.505 5.00819 22.4447 4.66893 22.1912 4.49706C21.9361 4.3237 21.5852 4.38198 21.4074 4.62709L19.8026 6.83302C19.6233 7.07813 19.6851 7.41739 19.9387 7.59075ZM21.041 8.67131C21.1492 8.77742 21.2945 8.83122 21.4383 8.83122C21.5821 8.83122 21.7258 8.77742 21.8372 8.67131L25.6063 5.01567C25.8258 4.80344 25.8258 4.4597 25.6047 4.24747C25.3852 4.03525 25.0296 4.03525 24.8101 4.24897L21.0394 7.90311C20.8199 8.11534 20.8199 8.45908 21.041 8.67131ZM26.9436 16.0304L24.1963 15.5686C23.8918 15.5163 23.5996 15.7136 23.547 16.011C23.4929 16.3054 23.6985 16.5879 24.0046 16.6402L26.7503 17.102C26.7843 17.1065 26.8153 17.1095 26.8477 17.1095C27.1167 17.1095 27.3548 16.9226 27.4012 16.6596C27.4537 16.3622 27.2497 16.0812 26.9436 16.0304ZM23.547 12.9905C23.5934 13.2536 23.8315 13.4404 24.0989 13.4404C24.1314 13.4404 24.1639 13.4374 24.1963 13.4329L26.9436 12.9696C27.2497 12.9188 27.4537 12.6363 27.4012 12.3419C27.3486 12.046 27.0564 11.8472 26.7503 11.8995L24.0046 12.3613C23.6985 12.4121 23.4929 12.6946 23.547 12.9905ZM29.4373 13.956L24.0958 13.9635C23.7851 13.9635 23.5347 14.2086 23.5347 14.5075C23.5347 14.8079 23.7867 15.0515 24.0958 15.0515H24.0974L29.4388 15.044C29.748 15.044 30 14.8004 30 14.4985C29.9985 14.1996 29.7465 13.956 29.4373 13.956ZM20.7225 21.5423C20.5447 21.2957 20.1922 21.2374 19.9387 21.4092C19.6851 21.5826 19.6233 21.9219 19.8026 22.167L21.4058 24.3714C21.5156 24.5224 21.6903 24.6031 21.8681 24.6031C21.9794 24.6031 22.0922 24.5702 22.1912 24.5044C22.4447 24.3311 22.505 23.9918 22.3272 23.7467L20.7225 21.5423ZM22.2855 20.0313L24.5643 21.5826C24.6632 21.6499 24.7761 21.6827 24.8874 21.6827C25.0652 21.6827 25.2399 21.6005 25.3481 21.4511C25.5274 21.206 25.4656 20.8667 25.2121 20.6934L22.9333 19.142C22.6766 18.9702 22.3272 19.0284 22.1494 19.2736C21.9686 19.5202 22.0304 19.8594 22.2855 20.0313ZM21.8248 20.3392C21.6037 20.1269 21.2481 20.1269 21.0286 20.3392C20.8091 20.5529 20.8091 20.8966 21.0301 21.1088L24.8101 24.7525C24.9214 24.8586 25.0636 24.9124 25.2074 24.9124C25.3527 24.9124 25.4965 24.8586 25.6063 24.7525C25.8258 24.5403 25.8258 24.1951 25.6047 23.9828L21.8248 20.3392ZM13.4378 22.7618C13.1317 22.711 12.841 22.9083 12.7869 23.2042L12.3092 25.86C12.2551 26.1559 12.4607 26.4369 12.7668 26.4892C12.7993 26.4937 12.8317 26.4967 12.8642 26.4967C13.1332 26.4967 13.3697 26.3113 13.4177 26.0468L13.8954 23.391C13.9495 23.0951 13.7439 22.8126 13.4378 22.7618ZM17.2131 23.2042C17.159 22.9083 16.8683 22.711 16.5622 22.7618C16.2561 22.8126 16.0505 23.0951 16.1046 23.391L16.5823 26.0468C16.6302 26.3113 16.8683 26.4967 17.1358 26.4967C17.1683 26.4967 17.1992 26.4937 17.2332 26.4892C17.5393 26.4369 17.7434 26.1559 17.6908 25.86L17.2131 23.2042ZM14.993 22.7498C14.6823 22.7498 14.4303 22.9935 14.4303 23.2954L14.438 28.456C14.438 28.7564 14.6885 29 15.0008 29C15.3115 29 15.5635 28.7549 15.562 28.4545L15.5542 23.2939C15.5542 22.9935 15.3022 22.7498 14.993 22.7498ZM4.65189 21.4511C4.76166 21.602 4.93481 21.6827 5.1126 21.6827C5.22391 21.6827 5.33677 21.6499 5.43571 21.5826L7.71605 20.0328C7.97114 19.8594 8.03143 19.5202 7.85365 19.275C7.67276 19.0284 7.32337 18.9702 7.06983 19.142L4.78794 20.6934C4.5344 20.8667 4.47256 21.206 4.65189 21.4511ZM10.0613 21.4092C9.80778 21.2374 9.45684 21.2957 9.2775 21.5423L7.67276 23.7452C7.49498 23.9918 7.55527 24.3311 7.80881 24.5029C7.90775 24.5702 8.02061 24.6031 8.13192 24.6031C8.30971 24.6031 8.48441 24.5224 8.59418 24.3714L10.1974 22.167C10.3767 21.9219 10.3149 21.5826 10.0613 21.4092ZM8.95903 20.3287C8.7395 20.1165 8.38238 20.1165 8.16439 20.3287L4.39371 23.9843C4.17573 24.1966 4.17573 24.5418 4.39526 24.754C4.50502 24.8601 4.64726 24.9124 4.79258 24.9124C4.93636 24.9124 5.08168 24.8601 5.19144 24.7525L8.96058 21.0969C9.18011 20.8847 9.18011 20.5394 8.95903 20.3287ZM3.05643 12.9696L5.80211 13.4329C5.83612 13.4374 5.86704 13.4404 5.90106 13.4404C6.16851 13.4404 6.4066 13.2536 6.45298 12.9905C6.50709 12.6946 6.30301 12.4121 5.99536 12.3613L3.24968 11.8995C2.94357 11.8472 2.65138 12.046 2.59881 12.3419C2.5447 12.6363 2.75032 12.9188 3.05643 12.9696ZM6.45298 16.011C6.40041 15.7136 6.10977 15.5163 5.80211 15.5686L3.05643 16.0304C2.75032 16.0812 2.5447 16.3622 2.59881 16.6596C2.64519 16.9226 2.88328 17.1095 3.15228 17.1095C3.18475 17.1095 3.21721 17.1065 3.24968 17.102L5.99536 16.6402C6.30301 16.5879 6.50709 16.3054 6.45298 16.011ZM6.46534 14.4925C6.46534 14.1921 6.21335 13.9485 5.90415 13.9485H5.9026L0.562742 13.956C0.253543 13.9575 0 14.2011 0 14.5C0.00154599 14.8004 0.255089 15.044 0.564287 15.044L5.90415 15.0365C6.21489 15.0365 6.46534 14.7929 6.46534 14.4925ZM9.2775 7.45774C9.38727 7.60869 9.56197 7.68939 9.73821 7.68939C9.85107 7.68939 9.96393 7.65651 10.0613 7.59075C10.3149 7.41739 10.3767 7.07813 10.1974 6.83302L8.59418 4.62858C8.41484 4.38198 8.0639 4.3237 7.81036 4.49706C7.55527 4.66893 7.49498 5.00819 7.67276 5.2533L9.2775 7.45774ZM7.85365 9.72645C8.03143 9.47985 7.97114 9.14059 7.71605 8.96872L5.43571 7.41739C5.18217 7.24402 4.83123 7.3038 4.65189 7.54891C4.47256 7.79551 4.5344 8.13477 4.78794 8.30664L7.06983 9.85797C7.16722 9.92522 7.28008 9.95661 7.39294 9.95661C7.56918 9.95661 7.74233 9.8759 7.85365 9.72645ZM8.17676 8.66234C8.28652 8.76696 8.4303 8.82076 8.57253 8.82076C8.71786 8.82076 8.86163 8.76696 8.9714 8.66084C9.19093 8.44862 9.19093 8.10338 8.96985 7.89116L5.1899 4.24747C4.96882 4.03525 4.61324 4.03525 4.39371 4.24897C4.17418 4.46119 4.17573 4.80494 4.39371 5.01716L8.17676 8.66234ZM16.5622 6.2382C16.5947 6.24418 16.6272 6.24567 16.6596 6.24567C16.9286 6.24567 17.1652 6.06035 17.2131 5.79581L17.6908 3.14002C17.7434 2.8441 17.5393 2.56313 17.2332 2.51082C16.9271 2.46001 16.6349 2.65878 16.5823 2.95321L16.1046 5.609C16.0505 5.90492 16.2561 6.18589 16.5622 6.2382ZM12.7869 5.79581C12.8348 6.06035 13.0729 6.24567 13.3404 6.24567C13.3728 6.24567 13.4053 6.24418 13.4378 6.2382C13.7439 6.18589 13.9495 5.90492 13.8954 5.609L13.4177 2.95321C13.3636 2.65878 13.0729 2.46001 12.7668 2.51082C12.4607 2.56313 12.2551 2.8441 12.3092 3.14002L12.7869 5.79581ZM15.0085 6.25015C15.3192 6.24866 15.5697 6.00505 15.5697 5.70614L15.562 0.544013C15.562 0.243611 15.31 5.08932e-07 15.0008 5.08932e-07H14.9992C14.6885 0.00149505 14.4365 0.245104 14.4365 0.545506L14.4458 5.70764C14.4458 6.00654 14.6962 6.25015 15.0085 6.25015ZM15.0008 21.3749C19.0296 21.3823 22.3674 18.0929 22.0969 14.0457C21.865 10.5215 18.8256 7.62513 15.0008 7.62363C10.9704 7.61766 7.63257 10.9071 7.90312 14.9543C8.13502 18.4785 11.1729 21.3749 15.0008 21.3749Z" fill="#FFF8EE"/>
</svg>
