<svg width="30" height="29" viewBox="0 0 30 29" fill="none" xmlns="http://www.w3.org/2000/svg">
<path d="M18.9449 18.5812C18.9449 19.2263 18.4444 19.7086 17.777 19.7086C17.1096 19.7086 16.6107 19.2263 16.6107 18.5812C16.6107 17.936 17.1096 17.4537 17.777 17.4537C18.4444 17.4537 18.9449 17.936 18.9449 18.5812ZM15 27.3886C12 27.3886 9.16684 26.4224 6.94492 24.7568H17.3888V23.1454H5.11123C4.05561 22.0722 3.22139 20.7834 2.66791 19.3876H5.77861V17.7747H2.11123C1.83369 16.7558 1.66684 15.6283 1.66684 14.4992C1.66684 13.8013 1.72299 13.1034 1.83369 12.4055H12.5936V10.7942H2.22193C3.0016 8.37633 4.5 6.2299 6.44438 4.61853H15.7219V3.00717H9.05615C10.8321 2.14798 12.8326 1.61137 15 1.61137C19.1663 1.61137 22.8882 3.49104 25.3315 6.38965H10.8321V8.00102H26.4995C27.3337 9.34408 27.8888 10.7942 28.1663 12.4055H20.3888V14.0169H28.3332V14.4992C28.3332 15.6283 28.1663 16.7015 27.8888 17.7747H20.4995C20.1674 16.6472 19.054 15.8423 17.777 15.8423C16.5 15.8423 15.4444 16.6472 15.0545 17.7747H11.1112V19.3876H15.0545C15.3882 20.5151 16.5 21.32 17.777 21.32C19.054 21.32 20.1112 20.5151 20.4995 19.3876H27.3337C25.3315 24.0589 20.5556 27.3886 15 27.3886ZM15 7.87856e-07C6.72193 7.87856e-07 0 6.49666 0 14.4992C0 22.5018 6.72193 29 15 29C23.2765 29 30 22.5018 30 14.4992C30 6.49666 23.2765 7.87856e-07 15 7.87856e-07Z" fill="#c86b25"/>
</svg>
