<svg width="30" height="29" viewBox="0 0 30 29" fill="none" xmlns="http://www.w3.org/2000/svg">
<path d="M26.8922 26.8041H26.0253L20.5538 22.9364L18.3569 24.5415C17.3144 25.3014 16.1841 25.6875 15.0011 25.6875C13.8159 25.6875 12.6834 25.3014 11.6409 24.54L9.444 22.9364L3.97249 26.8041H3.10557V22.8356L8.024 18.0236L7.93621 17.2234C7.87475 16.6372 7.84183 16.1208 7.84183 15.6106C7.84183 11.0094 12.3981 5.83598 15.0011 3.25238C17.6107 5.83133 22.156 10.9923 22.156 15.6106C22.156 16.1177 22.1252 16.6465 22.0638 17.2234L21.9782 18.0251L26.8922 22.8341V26.8041ZM29.853 21.9781L25.1628 17.3893C25.2286 16.7535 25.2637 16.1704 25.2637 15.6106C25.2637 8.40407 15.9997 0.521449 15.6047 0.189582C15.3062 -0.0631952 14.6938 -0.0631952 14.3953 0.189582C14.0003 0.521449 4.73626 8.40407 4.73626 15.6106C4.73626 16.1735 4.76919 16.7426 4.83942 17.3893L0.149242 21.9781C0.0526736 22.0742 0 22.1874 0 22.3053V28.4417C0 28.7503 0.353355 29 0.787915 29H4.93379C5.14449 29 5.34421 28.9411 5.49126 28.8356L9.40888 26.0675C11.0418 27.2585 12.96 27.8834 15.0011 27.8834C17.04 27.8834 18.9604 27.2585 20.5911 26.0675L24.5087 28.8356C24.6558 28.9411 24.8555 29 25.0662 29H29.2121C29.6488 29 30 28.7503 30 28.4417V22.3053C30 22.1874 29.9495 22.0742 29.853 21.9781Z" fill="#c86b25"/>
<path d="M15.0011 16.7267C12.8239 16.7267 11.0528 15.4752 11.0528 13.9384C11.0528 12.3985 12.8239 11.1485 15.0011 11.1485C17.1761 11.1485 18.9473 12.3985 18.9473 13.9384C18.9473 15.4752 17.1761 16.7267 15.0011 16.7267ZM15.0011 10.0335C11.9526 10.0335 9.47255 11.7844 9.47255 13.9384C9.47255 16.0909 11.9526 17.8433 15.0011 17.8433C18.0474 17.8433 20.5275 16.0909 20.5275 13.9384C20.5275 11.7844 18.0474 10.0335 15.0011 10.0335Z" fill="#c86b25"/>
<path d="M15.0011 12.2628C14.5643 12.2628 14.211 12.514 14.211 12.8211C14.211 13.1297 14.5643 13.3794 15.0011 13.3794C15.4334 13.3794 15.789 13.629 15.789 13.9377C15.789 14.2447 16.1445 14.4944 16.5791 14.4944C17.0158 14.4944 17.3692 14.2447 17.3692 13.9377C17.3692 13.0134 16.3069 12.2628 15.0011 12.2628Z" fill="#c86b25"/>
</svg>
