<svg xmlns="http://www.w3.org/2000/svg" width="72" height="72" fill="none" viewBox="0 0 72 72">
  <path fill="#FFF8EE" d="M34.834 0h2.332c.22.043.436.103.657.126C39.16.27 40.51.332 41.834.55c7.864 1.303 14.59 4.787 20.102 10.486 5.63 5.819 8.881 12.758 9.775 20.77.098.88.192 1.759.288 2.638v2.307c-.043.217-.104.43-.127.649-.145 1.322-.209 2.657-.43 3.967-1.317 7.776-4.84 14.427-10.602 19.878-5.885 5.568-12.903 8.782-21.005 9.666-.89.097-1.779.19-2.67.285h-2.332c-.22-.043-.436-.103-.657-.126-1.337-.143-2.687-.206-4.012-.425-7.864-1.302-14.59-4.787-20.102-10.484-5.631-5.819-8.881-12.758-9.775-20.77-.098-.88-.192-1.759-.288-2.638v-2.307c.044-.217.104-.43.128-.649.144-1.322.208-2.657.429-3.967 1.317-7.776 4.84-14.427 10.602-19.878C17.044 4.384 24.062 1.17 32.164.286c.89-.098 1.78-.19 2.67-.286Zm.175 69.255c.027-.263.053-.41.055-.56.001-5.97-.027-11.938.012-17.908.024-3.712-1.573-6.556-4.556-8.69-2.487-1.78-5.24-2.2-8.102-1.128-3.721 1.395-6.141 4.424-5.97 8.679.101 2.522-.025 5.071-.297 7.58-.173 1.598-.802 3.148-1.249 4.804 5.826 4.498 12.51 6.954 20.107 7.223Zm2.003-22.513c.038 1.606.456 2.987 1.453 4.142 2.44 2.826 5.542 4.307 9.316 4.315 3.435.008 6.446 1.107 9.034 3.332.717.617 1.388 1.284 2.079 1.928 6.256-4.833 11.608-16.402 11.072-23.972h-17.97c1.844 1.145 3.362 2.418 4.186 4.334.813 1.893.841 3.866.695 5.92H37.012Zm-.077-44.934c0 1.221.02 2.213-.008 3.203-.014.482.141.64.645.708 5.885.778 9.831 4.235 12.686 9.123.445.76.738 1.653.896 2.52.291 1.583.415 3.196.633 4.792.423 3.09 1.947 5.545 4.717 7.013 3.166 1.68 8.624 1.387 11.557-2.394.417-.537.57-.987.325-1.662-4.37-11.962-12.783-19.478-25.292-22.435-1.967-.465-4.02-.576-6.16-.868Zm-6.266 32.907c-.03-.1-.028-.16-.057-.187-2.062-2.002-2.843-4.503-2.969-7.284-.036-.808-.106-1.661-.398-2.4-2.154-5.469-8.07-6.92-12.843-5.103-1.69.644-2.837 1.908-3.946 3.25-1.856 2.243-4.189 3.771-7.078 4.422-.203.046-.475.267-.518.453-.527 2.24-.887 4.503-.866 6.85h28.675Zm19.36-.005c-.114-4.786-.218-9.515-.346-14.243-.053-1.97-.38-3.898-1.529-5.554-.757-1.092-1.67-2.08-2.539-3.091-1.905-2.213-4.384-3.458-7.205-4.098-.46-.105-.937-.14-1.435-.21V34.71H50.03ZM1.937 36.47c.43 9.63 4.183 17.625 11.309 24.194.91-2.071 1.34-4.103 1.356-6.185.045-5.888.015-11.777.01-17.666 0-.117-.05-.234-.076-.345-4.18.002-8.318.002-12.599.002Zm35.056 15.82v16.965c7.687-.272 14.448-2.78 20.417-7.467-2.855-3.428-6.183-4.762-9.656-4.74-3.7.024-6.86-1.32-9.593-3.73l-1.168-1.029ZM21.22 17.45c-.064-.043-.025-.001.02.013 5.362 1.545 7.97 4.817 8.323 10.367.124 1.939.774 3.692 2.14 5.148.894.953 2.028 1.213 3.312 1.26V7.47c-.485.05-.919.06-1.34.139-4.106.764-7.087 3.18-9.563 6.356-.922 1.188-1.919 2.318-2.892 3.486ZM8.849 15.22c1.567 1.279 2.61 1.751 4.75 1.942 3.577.318 6.519-.71 8.671-3.785 2.977-4.248 6.87-7.205 12.287-7.743.177-.017.473-.225.477-.353.04-1.088.022-2.178.022-3.37-10.839.546-19.473 5.002-26.208 13.309Zm46.213 29.643c-.001-1.785-.345-3.407-1.524-4.754-3.586-4.093-10.332-4.283-14.106-.378-1.37 1.417-2.225 3.103-2.45 5.132h18.08Zm14.316-16.416-.222-.079c-2.352 2.66-5.393 3.648-8.82 3.579-3.521-.071-6.392-1.463-8.508-4.623V34.7h18.31c-.26-2.128-.51-4.192-.76-6.254ZM35 43.854v-7.367H16.521v6.412c4.843-5.759 13.382-6.048 18.48.955ZM3.707 25.46l1.742-.772c2.812-1.241 4.116-4.089 6.325-5.714l-4.1-2.052c-1.752 2.553-3.12 5.366-3.967 8.538ZM40.25 36.499h-3.236v2.957l3.236-2.957Z"/>
</svg>
