<svg xmlns="http://www.w3.org/2000/svg" width="1440" height="96" fill="none" viewBox="0 0 1440 96">
  <path stroke="#000" stroke-opacity=".2" stroke-width="34" d="M5 273.314c33.218-3.195 49.827-9.293 74.167-31.071 27.777-32.233 52.976-49.946 74.167-57.496M5 273.314V5m0 268.314v91.47m148.334-180.037C58.549 179.52 14.164 100.536 70.29 5m83.044 179.747C58.549 179.52 14.164 100.536 70.576 5h292.087M153.334 184.747c4.582-.29 9.164-.581 13.745-.581m-13.745.581c4.582.29 9.164.29 13.745-.581m-13.745.581c4.868.29 9.45 0 13.745-.581M70.289 5H5m65.29 0h1108.5M5 5v359.784m481.083-232.887c-31.785-43.847-60.708-66.207-123.42-70.853m123.42 70.853c23.768 32.814 24.627 64.465 26.059 101.053v.581l-1.145 131.253H362.663m123.42-232.887c-31.499-44.138-60.421-66.207-123.42-70.853m123.42 70.853c23.768 32.814 24.627 64.465 25.773 101.053M362.663 61.044v303.74m0-303.74V5m0 56.044c-62.999-4.646-91.635 32.523-110.535 51.688m110.535 252.052c-56.127-2.904-76.172-42.105-78.463-92.922m78.463 92.922H5m357.663 0c-56.127-2.904-76.172-41.815-78.463-92.922m78.463 92.922V5m355.944 173.939V255.6m0-76.661V5m0 173.939c-20.331-49.365-63.572-60.109-103.089-91.47m103.089 91.47c-20.331-49.365-63.285-60.109-103.089-91.47M718.607 255.6v109.184m0-109.184c-24.627 30.781-54.695 61.561-94.498 63.304m94.498-63.304c-24.34 30.781-54.695 61.852-94.498 63.304m94.498 45.88c89.058-3.775 152.343-83.63 152.63-162.033 0-24.392.286-32.814.286-35.427m-152.916 197.46H510.71l1.146-131.253m206.751 131.253H1077.7m-206.177-197.46c0-2.323 0-10.744-.286-35.427m.286 35.427c0-2.613-.286-11.035-.286-35.427m.286 35.427c0-2.904 0 2.904 0 0Zm0 0c0 2.323 0 10.744-.286 35.136-.287 78.404-63.572 158.259-152.63 162.034H1077.7V128.993m-206.177 38.331c0-3.194 0 2.904 0 0Zm0 0c0-5.517 0 18.584-.286-35.427m0 0V5m0 126.897c48.108-111.216 159.503-103.086 206.463-2.904m-206.463 2.904V5m0 0h-152.63m152.63 0H1077.7M871.237 5h307.553M718.607 5H589.173c.286 41.234.859 62.432 26.345 82.469M718.607 5h460.183M1077.7 108.376h209.33m-209.33 0c13.46-68.82 48.4-101.924 101.09-103.086h8.01c55.27 1.452 90.78 36.879 100.23 103.086m-209.33 0v10.454c21.48 71.725 48.97 88.567 111.97 96.407 85.91 9.873 132.01 64.465 152.63 149.838 15.46-63.594 36.65-82.469 93.06-88.277V5m-148.33 103.376C1277.58 42.169 1242.07 6.742 1186.8 5m-109.1 123.993V118.54m0 10.453v235.791m0-246.244v-10.454m0 10.454c21.48 71.434 48.97 88.566 111.97 96.407 85.91 9.873 132.01 64.465 152.63 149.837M1077.7 118.54v246.244m0-256.698V5m0 103.086C1091.16 39.266 1126.1 6.162 1178.79 5M1077.7 5h101.09m256.57 0H1186.8m248.56 0h-256.57m256.57 0v271.508M1186.8 5h-8.01m8.01 0h-8.01M511.856 232.95v.581m0-.581v.581m0 0c1.432 48.204 67.294 87.405 112.253 85.373m-112.253-85.373c1.432 47.913 67.294 87.115 112.253 85.373m-8.591-231.435C590.032 67.432 589.459 46.234 589.459 5m0 0H362.663m226.796 0h129.434M252.128 112.732c-17.182 17.133-43.813 64.755-85.049 71.434m85.049-71.434c-17.182 17.423-43.527 64.755-85.049 71.434m0 0c75.313-2.032 114.258 26.715 117.121 87.696m1058.1 92.922h-264.6m264.6 0h93.06m-93.06 0c15.46-63.594 36.65-82.469 93.06-88.276M5 364.784h1430.36m0 0v-88.276m0 0c.58-.291.86-.291 1.44-.291"/>
</svg>
